<svg width="198" height="187" viewBox="0 0 198 187" fill="none" xmlns="http://www.w3.org/2000/svg">
<path d="M101 43.4504C116.755 43.4504 129.487 46.5754 138.992 52.8254C151.232 61.1587 157.352 74.7004 157.352 93.4504C157.352 112.2 151.232 125.742 138.992 134.075C129.487 140.456 117.101 143.8 101.346 143.8H59.8462H18.8462C18.8462 143.8 15.2069 143.8 11 143.8C9.15216 143.8 7 143.8 6 145C5 146.2 5 147.301 5 149C5 155.548 5 165.3 5 165.3C5 165.3 5 176 4.99997 178.131C5 179.5 5 180.901 6 182C7 183.099 8 183.099 10 183.099C20 183.099 101.102 183.099 101.102 183.099C116.529 183.099 130.299 180.822 142.411 176.268C143.77 175.757 145.109 175.218 146.427 174.649C152.384 172.079 157.914 168.923 163.018 165.181C165.743 163.182 168.346 161.017 170.828 158.685C175.501 154.326 179.548 149.574 182.97 144.431C192.323 130.369 197 113.376 197 93.4504C197 66.2368 188.276 44.492 170.828 28.216C153.51 11.94 130.167 3.79999 101 3.79999V43.4504Z" fill="url(#paint0_linear)"/>
<g filter="url(#filter0_d)">
<path d="M101 43.4504C85.2448 43.4504 72.513 46.5754 63.0078 52.8254C50.7682 61.1587 44.6484 74.7004 44.6484 93.4504C44.6484 112.2 50.7682 125.742 63.0078 134.075C72.513 140.456 84.8986 143.8 100.654 143.8H142.154H183.154C183.154 143.8 186.793 143.8 191 143.8C192.848 143.8 195 143.8 196 145C197 146.2 197 147.301 197 149C197 155.548 197 165.3 197 165.3C197 165.3 197 176 197 178.131C197 179.5 197 180.901 196 182C195 183.099 194 183.099 192 183.099C182 183.099 100.898 183.099 100.898 183.099C85.4711 183.099 71.7014 180.822 59.5891 176.268C58.2297 175.757 56.8911 175.218 55.5734 174.649C49.6161 172.079 44.0856 168.923 38.9819 165.181C36.2569 163.182 33.6535 161.017 31.1719 158.685C26.499 154.326 22.4518 149.574 19.0304 144.431C9.67679 130.369 5 113.376 5 93.4504C5 66.2368 13.724 44.492 31.1719 28.216C48.4896 11.94 71.8333 3.79999 101 3.79999V43.4504Z" fill="#00FFB3"/>
</g>
<defs>
<filter id="filter0_d" x="0" y="0.799988" width="198" height="185.299" filterUnits="userSpaceOnUse" color-interpolation-filters="sRGB">
<feFlood flood-opacity="0" result="BackgroundImageFix"/>
<feColorMatrix in="SourceAlpha" type="matrix" values="0 0 0 0 0 0 0 0 0 0 0 0 0 0 0 0 0 0 127 0"/>
<feOffset dx="-2"/>
<feGaussianBlur stdDeviation="1.5"/>
<feColorMatrix type="matrix" values="0 0 0 0 0.239216 0 0 0 0 0.262745 0 0 0 0 0.309804 0 0 0 0.08 0"/>
<feBlend mode="normal" in2="BackgroundImageFix" result="effect1_dropShadow"/>
<feBlend mode="normal" in="SourceGraphic" in2="effect1_dropShadow" result="shape"/>
</filter>
<linearGradient id="paint0_linear" x1="101" y1="44.8" x2="5.00008" y2="182.8" gradientUnits="userSpaceOnUse">
<stop stop-color="#00FFB3"/>
<stop offset="0.187845" stop-color="#0BE0A3"/>
<stop offset="0.99801" stop-color="#14C594"/>
</linearGradient>
</defs>
</svg>
